<svg width="15" height="15" viewBox="0 0 15 15" fill="none" xmlns="http://www.w3.org/2000/svg">
<path d="M14.634 12.8658L9.26775 7.49957L14.6336 2.13369C15.1219 1.64544 15.1219 0.854193 14.6336 0.365943C14.1454 -0.122307 13.3541 -0.122307 12.8659 0.365943L7.5 5.73182L2.13413 0.365943C1.64588 -0.121932 0.854254 -0.121932 0.366379 0.365943C-0.121871 0.854193 -0.121871 1.64544 0.366379 2.13369L5.73225 7.49957L0.366004 12.8658C-0.122246 13.3541 -0.122246 14.1453 0.366004 14.6336C0.610129 14.8777 0.930004 14.9996 1.24988 14.9996C1.56975 14.9996 1.88963 14.8777 2.13375 14.6336L7.5 9.26732L12.8663 14.6336C13.1104 14.8777 13.4303 14.9996 13.7501 14.9996C14.07 14.9996 14.3899 14.8777 14.634 14.6336C15.1223 14.1453 15.1223 13.3541 14.634 12.8658Z" fill="white"/>
</svg>
