<svg width="87" height="40" viewBox="0 0 87 40" fill="none" xmlns="http://www.w3.org/2000/svg">
<g clip-path="url(#clip0_1_207)">
<path d="M27.4486 0.0202276C27.4486 0.00219727 19.994 0.0202276 19.994 0.0202276C8.95961 0.0202276 0.0141602 8.96568 0.0141602 20.0001C0.0141602 31.0345 8.95961 39.9799 19.994 39.9799L34.0103 39.9682C37.5316 39.9682 40.3861 37.1359 40.3861 33.6145L40.3936 21.4283L50.0815 36.7087C51.3917 38.6916 53.6407 39.9998 56.1954 39.9998C60.2395 39.9998 63.5182 36.7212 63.5182 32.6769L63.5161 21.4282L73.2039 36.7085C74.5142 38.6915 76.7632 39.9996 79.3179 39.9996C83.362 39.9996 86.6407 36.7211 86.6407 32.6768L86.6386 0.00219727H81.6538V32.6772C81.6538 33.9672 80.608 35.0129 79.318 35.0129C78.5118 35.0129 77.8009 34.6046 77.3812 33.9832L60.1377 6.82212C60.0309 6.66669 59.8771 6.54953 59.6989 6.48777C59.5207 6.426 59.3274 6.42287 59.1473 6.47884C58.9672 6.53481 58.8097 6.64693 58.6978 6.79882C58.586 6.95071 58.5257 7.13439 58.5258 7.32301L58.5313 32.6773C58.5313 33.9673 57.4855 35.0131 56.1955 35.0131C55.3893 35.0131 54.6785 34.6047 54.2587 33.9833L37.0153 6.82212C36.9084 6.66672 36.7546 6.54959 36.5764 6.48784C36.3982 6.4261 36.2049 6.42298 36.0248 6.47894C35.8446 6.5349 35.6872 6.64701 35.5753 6.79887C35.4635 6.95074 35.4031 7.1344 35.4031 7.32301L35.3993 33.6147C35.3993 34.3819 34.7776 35.0035 34.0105 35.0035L19.9941 34.993C11.7139 34.9928 5.00126 28.2802 5.00126 20.0001C5.00126 11.72 11.7139 5.0072 19.994 5.0072L27.4486 5.0017V0.0202276Z" fill="white"/>
<path d="M28.2521 28.5887C28.4405 28.5887 28.6211 28.5139 28.7543 28.3807C28.8875 28.2475 28.9623 28.0669 28.9623 27.8785L28.9643 7.32273C28.9641 3.2787 32.2427 0 36.2869 0C38.8506 0 41.1068 1.31762 42.415 3.31259L52.0692 18.4573L52.0866 7.32285C52.0866 3.2787 55.3651 0 59.4094 0C61.9731 0 64.2292 1.31762 65.5375 3.31259L75.1916 18.4573V0.00217386H80.2107L80.2017 32.6771C80.2017 32.8626 80.1433 33.0434 80.0348 33.1938C79.9263 33.3443 79.7733 33.4568 79.5973 33.5154C79.4213 33.5741 79.2314 33.5759 79.0543 33.5206C78.8773 33.4653 78.7222 33.3557 78.6108 33.2073L61.3461 6.01687C60.9265 5.39566 60.2156 4.9871 59.4094 4.9871C58.1194 4.9871 57.0736 6.03286 57.0736 7.32285L57.0792 32.6771C57.0791 32.8626 57.0207 33.0434 56.9122 33.1938C56.8037 33.3442 56.6507 33.4567 56.4747 33.5153C56.2987 33.574 56.1088 33.5758 55.9318 33.5205C55.7547 33.4652 55.5995 33.3557 55.4882 33.2073L38.2238 6.01687C37.804 5.39566 37.0932 4.9871 36.2869 4.9871C34.997 4.9871 33.9512 6.03286 33.9512 7.32285L33.9617 32.878C33.9617 33.0664 33.8869 33.247 33.7537 33.3802C33.6205 33.5134 33.4399 33.5882 33.2515 33.5882L19.994 33.5856C12.5156 33.5856 6.45312 27.4784 6.45312 20.0002C6.45312 12.5218 12.5156 6.41456 19.994 6.41456C19.994 6.41456 27.4486 6.38553 27.4486 6.41456V11.4519L19.994 11.4463C15.2699 11.4463 11.4402 15.276 11.4402 20.0002C11.4402 24.7241 15.2699 28.5985 19.994 28.5985L28.2521 28.5887Z" fill="white"/>
</g>
<defs>
<clipPath id="clip0_1_207">
<rect width="86.6551" height="40" fill="white"/>
</clipPath>
</defs>
</svg>
