<svg width="40" height="41" viewBox="0 0 40 41" fill="none" xmlns="http://www.w3.org/2000/svg">
<path d="M20 0.399902C8.95427 0.399902 0 9.35417 0 20.3999C0 31.4456 8.95427 40.3999 20 40.3999C31.0457 40.3999 40 31.4456 40 20.3999C40 9.35417 31.0457 0.399902 20 0.399902ZM27.6301 10.5851L24.8638 10.5863C22.6946 10.5863 22.2752 11.6171 22.2752 13.1295V16.4646H27.448L27.4455 21.6881H22.2756V35.0929H16.8802V21.6881H12.3699V16.4646H16.8802V12.6123C16.8802 8.14169 19.6117 5.70691 23.5994 5.70691L27.6305 5.71305V10.5851H27.6301Z" fill="white"/>
</svg>
