<svg width="304" height="40" viewBox="0 0 304 40" fill="none" xmlns="http://www.w3.org/2000/svg">
<path d="M224.62 39.0944H233.194V0.902386H224.62V39.0944ZM263.668 25.0303L249.051 0.905411H240.537V39.0944H248.727V14.9665L263.836 39.0944H271.858V0.905411H263.668V25.0303ZM286.607 31.7125V23.1203H300.611V16.297H286.607V8.28733H302.989V0.905411H278.023V39.0944H303.587V31.7125H286.607ZM206.589 26.574L199.486 0.905411H192.852L185.476 26.574L179.193 0.905411H170.829L180.806 39.0944H188.416L195.777 15.1797L203.258 39.0944H210.577L220.842 0.905411H212.649L206.589 26.574ZM0.570068 39.0944H9.30645V24.0903H23.0943V16.7084H9.1413V8.28733H25.4698V0.905411H0.570068V39.0944ZM44.8827 0.151581C32.8067 0.151581 27.7343 9.17629 27.7343 19.9969C27.7343 30.8266 32.8067 39.8483 44.8827 39.8483C56.9647 39.8483 62.0371 30.8266 62.0371 19.9969C62.0371 9.17629 56.9647 0.151581 44.8827 0.151581ZM44.8827 32.4693C39.3327 32.4693 36.5788 27.5921 36.5788 19.9969C36.5788 12.4138 39.3327 7.53051 44.8827 7.53051C50.4356 7.53051 53.1897 12.4138 53.1897 19.9969C53.1897 27.5921 50.4356 32.4693 44.8827 32.4693ZM172.439 38.671C171.34 38.671 169.258 37.9712 168.003 37.2204C166.922 36.5898 165.174 35.5236 162.558 33.3463C164.546 30.9707 166.429 27.1656 166.429 24.0483C166.429 23.6158 166.069 23.3485 165.402 23.2735C163.207 23.0362 161.63 22.9941 160.696 22.9941C160.375 22.9941 160.066 23.0782 160.066 23.3305L160.534 23.6158C161.123 23.6158 161.952 23.733 162.456 24.2315C163.048 24.7601 163.207 25.5049 163.207 26.0965C163.207 28.4961 162.204 31.0819 161.264 32.3883C160.258 31.5203 155.423 27.0785 154.092 25.5889C150.479 21.6217 147.725 18.7746 147.725 15.387C147.725 11.8732 150.317 10.5788 152.323 10.5788C154.284 10.5788 155.642 11.4047 156.468 12.3237C157.39 13.3478 157.645 14.6272 157.645 15.6483C157.645 16.2339 157.684 16.39 157.9 16.39C158.098 16.39 158.237 16.315 158.333 15.7233C158.45 15.1347 158.687 12.1885 158.687 10.9482C158.687 10.4767 158.669 10.2064 158.098 9.94511C157.041 9.43757 155.314 9.04414 153.338 9.04414C147.296 9.04414 144.329 13.1676 144.35 16.2729C144.368 18.0418 144.758 19.6516 146.308 21.7778C143.605 23.2464 140.106 26.565 140.106 31.1629C140.106 34.5866 142.701 39.8483 150.335 39.8483C155.936 39.8483 158.804 36.9742 159.903 35.9381C163.754 38.9473 164.937 39.3017 168.625 39.3017H172.063C172.673 39.3017 172.991 39.1845 172.991 38.9803C172.991 38.713 172.796 38.671 172.439 38.671ZM151.696 37.5658C147.455 37.5658 143.992 34.2292 143.992 29.319C143.992 26.1776 145.425 24.1954 147.119 23.0362C148.002 24.3276 150.512 27.1386 151.536 28.2318C152.56 29.337 156.384 33.052 158.624 34.938C157.546 36.0162 155.035 37.5658 151.696 37.5658ZM113.125 0.905411H103.638V39.0944H113.125C126.111 39.0944 134.088 33.5655 134.088 19.9969C134.088 6.43134 126.111 0.905411 113.125 0.905411ZM114.074 31.7125H112.209V8.28733H114.074C121.94 8.28733 125.402 11.2515 125.402 19.9969C125.402 28.7483 121.94 31.7125 114.074 31.7125ZM82.7805 0.151581C70.7015 0.151581 65.626 9.17629 65.626 19.9969C65.626 30.8266 70.7015 39.8483 82.7805 39.8483C94.8625 39.8483 99.9319 30.8266 99.9319 19.9969C99.9319 9.17629 94.8625 0.151581 82.7805 0.151581ZM82.7805 32.4693C77.2305 32.4693 74.4795 27.5921 74.4795 19.9969C74.4795 12.4138 77.2305 7.53051 82.7805 7.53051C88.3335 7.53051 91.0874 12.4138 91.0874 19.9969C91.0874 27.5921 88.3335 32.4693 82.7805 32.4693Z" fill="white"/>
</svg>
