<svg width="160" height="40" viewBox="0 0 160 40" fill="none" xmlns="http://www.w3.org/2000/svg">
<path d="M97.4662 11.3745C94.8978 11.3745 92.8804 11.9255 90.8619 13.0254C90.8619 7.15425 90.8619 1.83412 91.0463 0L78.752 2.20074V3.30163L80.0363 3.48494C81.686 3.85155 82.2391 4.76809 82.6025 6.97094C82.9723 11.3745 82.7869 34.86 82.6025 38.7137C85.9052 39.448 89.3923 39.9989 92.8793 39.9989C102.604 39.9989 108.475 33.9435 108.475 24.402C108.475 16.8801 103.705 11.3745 97.4662 11.3745ZM93.246 37.9794C92.5117 37.9794 91.593 37.9794 91.0442 37.7971C90.8598 35.2287 90.6776 24.402 90.8598 14.8616C91.9607 14.4939 92.6939 14.3106 93.6126 14.3106C97.6517 14.3106 99.8535 19.0808 99.8535 24.9509C99.8524 32.2927 97.0996 37.9794 93.246 37.9794ZM32.5122 0.733226H0.218506V2.38404L2.05369 2.56735C4.43773 2.93396 5.35638 4.40147 5.72194 7.88747C6.27397 14.4929 6.08961 26.4205 5.72194 32.1062C5.35532 35.5932 4.43879 37.2451 2.05369 37.4263L0.218506 37.795V39.2625H20.9523V37.795L18.7505 37.4263C16.3654 37.244 15.4478 35.5932 15.0812 32.1062C14.8968 29.72 14.7135 25.8663 14.7135 21.0972L19.1171 21.2805C21.8699 21.2805 23.153 23.4823 23.704 26.6006H25.3559V13.5774H23.704C23.1519 16.6968 21.8699 18.8975 19.1171 18.8975L14.7145 19.0819C14.7145 12.8431 14.8979 6.972 15.0822 3.486H21.5032C26.4589 3.486 29.0273 6.60433 30.8614 12.1099L32.6966 11.5589L32.5122 0.733226Z" fill="white"/>
<path d="M42.9713 11.0079C52.1462 11.0079 56.7331 17.2466 56.7331 25.5029C56.7331 33.3924 51.5952 40 42.4204 40C33.2466 40 28.6597 33.7601 28.6597 25.5029C28.6597 17.6133 33.7965 11.0079 42.9713 11.0079ZM42.4204 12.8431C38.3834 12.8431 37.2825 18.3475 37.2825 25.5029C37.2825 32.4749 39.1177 38.1626 42.788 38.1626C47.0051 38.1626 48.1082 32.6582 48.1082 25.5029C48.1082 18.5309 46.2751 12.8431 42.4204 12.8431ZM110.859 25.6872C110.859 18.1642 115.63 11.0079 124.988 11.0079C132.692 11.0079 136.363 16.6967 136.363 24.2186H119.299C119.114 31.0073 122.417 35.9619 129.024 35.9619C131.96 35.9619 133.427 35.2297 135.263 33.9445L135.996 34.861C134.16 37.4294 130.125 40 124.988 40C116.73 39.9989 110.859 34.1278 110.859 25.6872ZM119.299 22.2012L127.923 22.0169C127.923 18.3475 127.372 12.8431 124.253 12.8431C121.135 12.8431 119.481 17.9799 119.299 22.2012ZM158.201 12.4764C155.999 11.5578 153.064 11.0079 149.762 11.0079C142.974 11.0079 138.752 15.0438 138.752 19.8151C138.752 24.5863 141.868 26.6038 146.277 28.0723C150.863 29.7221 152.148 31.0073 152.148 33.2091C152.148 35.4109 150.496 37.4284 147.56 37.4284C144.075 37.4284 141.504 35.4109 139.487 29.9054L138.202 30.2741L138.386 38.347C140.588 39.2635 144.624 39.9989 148.111 39.9989C155.267 39.9989 159.855 36.3275 159.855 30.6407C159.855 26.7871 157.836 24.5863 153.065 22.7501C147.926 20.7326 146.093 19.4484 146.093 17.0623C146.093 14.6772 147.747 13.0253 149.949 13.0253C153.25 13.0253 155.452 15.0438 157.106 19.9984L158.389 19.6318L158.201 12.4764ZM80.5852 11.7422C77.4668 9.9091 71.9613 10.8246 69.0263 17.431L69.2085 11.0089L56.9164 13.394V14.4949L58.2006 14.6782C59.8535 14.8626 60.5857 15.7791 60.7701 18.1653C61.1367 22.5689 60.9534 30.2762 60.7701 34.1289C60.5857 36.3285 59.8535 37.4294 58.2006 37.6138L56.9164 37.7982V39.2657H73.9798V37.7982L71.778 37.6138C69.9439 37.4294 69.3929 36.3285 69.2085 34.1289C68.8419 30.6418 68.8419 23.6698 69.0263 19.2662C69.9428 17.9809 73.9798 16.8811 77.6491 19.2662L80.5852 11.7422Z" fill="white"/>
</svg>
