<svg width="40" height="41" viewBox="0 0 40 41" fill="none" xmlns="http://www.w3.org/2000/svg">
<g clip-path="url(#clip0_1_266)">
<path d="M23.8281 20.3999C23.8281 22.5142 22.1143 24.228 20 24.228C17.8857 24.228 16.1719 22.5142 16.1719 20.3999C16.1719 18.2856 17.8857 16.5718 20 16.5718C22.1143 16.5718 23.8281 18.2856 23.8281 20.3999Z" fill="white"/>
<path d="M28.9526 13.6268C28.7686 13.1281 28.475 12.6768 28.0936 12.3063C27.7231 11.9248 27.272 11.6312 26.7731 11.4472C26.3684 11.29 25.7605 11.103 24.6408 11.052C23.4296 10.9968 23.0664 10.9849 20 10.9849C16.9333 10.9849 16.5701 10.9965 15.3592 11.0517C14.2395 11.103 13.6313 11.29 13.2269 11.4472C12.728 11.6312 12.2766 11.9248 11.9064 12.3063C11.525 12.6768 11.2314 13.1278 11.0471 13.6268C10.8899 14.0314 10.7028 14.6396 10.6519 15.7593C10.5966 16.9703 10.5847 17.3334 10.5847 20.4001C10.5847 23.4666 10.5966 23.8297 10.6519 25.041C10.7028 26.1606 10.8899 26.7686 11.0471 27.1732C11.2314 27.6722 11.5247 28.1232 11.9061 28.4937C12.2766 28.8752 12.7277 29.1688 13.2266 29.3528C13.6313 29.5103 14.2395 29.6973 15.3592 29.7483C16.5701 29.8035 16.933 29.8151 19.9997 29.8151C23.0667 29.8151 23.4299 29.8035 24.6405 29.7483C25.7602 29.6973 26.3684 29.5103 26.7731 29.3528C27.7747 28.9664 28.5663 28.1748 28.9526 27.1732C29.1098 26.7686 29.2969 26.1606 29.3481 25.041C29.4034 23.8297 29.415 23.4666 29.415 20.4001C29.415 17.3334 29.4034 16.9703 29.3481 15.7593C29.2972 14.6396 29.1101 14.0314 28.9526 13.6268ZM20 26.2971C16.7429 26.2971 14.1025 23.657 14.1025 20.3998C14.1025 17.1427 16.7429 14.5026 20 14.5026C23.2568 14.5026 25.8972 17.1427 25.8972 20.3998C25.8972 23.657 23.2568 26.2971 20 26.2971ZM26.1304 15.6476C25.3693 15.6476 24.7522 15.0306 24.7522 14.2695C24.7522 13.5084 25.3693 12.8913 26.1304 12.8913C26.8915 12.8913 27.5085 13.5084 27.5085 14.2695C27.5082 15.0306 26.8915 15.6476 26.1304 15.6476Z" fill="white"/>
<path d="M20 0.399902C8.95599 0.399902 0 9.3559 0 20.3999C0 31.4439 8.95599 40.3999 20 40.3999C31.044 40.3999 40 31.4439 40 20.3999C40 9.3559 31.044 0.399902 20 0.399902ZM31.4151 25.1347C31.3596 26.3572 31.1652 27.1919 30.8813 27.9225C30.2847 29.4651 29.0652 30.6846 27.5226 31.2812C26.7923 31.5651 25.9573 31.7592 24.7351 31.815C23.5104 31.8708 23.1192 31.8843 20.0003 31.8843C16.8811 31.8843 16.4902 31.8708 15.2652 31.815C14.043 31.7592 13.208 31.5651 12.4777 31.2812C11.7111 30.9929 11.0172 30.5409 10.4434 29.9565C9.85931 29.3831 9.40735 28.6888 9.11896 27.9225C8.83514 27.1922 8.64075 26.3572 8.58521 25.135C8.52875 23.91 8.51562 23.5188 8.51562 20.3999C8.51562 17.281 8.52875 16.8898 8.5849 15.6651C8.64044 14.4426 8.83453 13.6079 9.11835 12.8773C9.40674 12.111 9.85901 11.4167 10.4434 10.8433C11.0168 10.2589 11.7111 9.80695 12.4774 9.51855C13.208 9.23474 14.0427 9.04065 15.2652 8.9848C16.4899 8.92896 16.8811 8.91553 20 8.91553C23.1189 8.91553 23.5101 8.92896 24.7348 8.98511C25.9573 9.04065 26.792 9.23474 27.5226 9.51825C28.2889 9.80664 28.9832 10.2589 29.5569 10.8433C30.141 11.4171 30.5933 12.111 30.8813 12.8773C31.1655 13.6079 31.3596 14.4426 31.4154 15.6651C31.4713 16.8898 31.4844 17.281 31.4844 20.3999C31.4844 23.5188 31.4713 23.91 31.4151 25.1347Z" fill="white"/>
</g>
<defs>
<clipPath id="clip0_1_266">
<rect width="40" height="40" fill="white" transform="translate(0 0.399902)"/>
</clipPath>
</defs>
</svg>
