<svg width="151" height="40" viewBox="0 0 151 40" fill="none" xmlns="http://www.w3.org/2000/svg">
<path d="M85.4111 9.77985C84.6073 7.14218 83.1 6.11223 80.6382 6.11223C78.9049 6.11223 76.7947 6.61465 76.7947 9.02623C76.7947 11.2871 79.2314 11.8146 80.814 12.1663C83.0749 12.719 86.1145 13.3219 88.0488 14.804C90.385 16.5122 91.7415 19.2755 91.6662 22.1392C91.6913 25.1035 90.4353 27.917 88.2246 29.9266C86.014 31.8609 82.9744 32.6899 80.186 32.6899C74.986 32.6899 70.7658 29.801 69.0073 23.8474L73.5793 22.8677C74.3831 26.1334 77.5735 27.0378 80.4372 27.0378C82.2962 27.0378 85.0846 25.9073 85.0846 23.3199C85.0846 20.7325 82.5725 18.8987 80.8643 18.4716C78.1261 17.8436 71.6199 15.5827 71.017 10.2823C70.5899 6.53929 72.1976 4.15282 73.4537 2.99727C75.4633 1.0881 77.8498 0.460083 80.4121 0.460083C85.2604 0.460083 89.2295 2.36925 90.9125 7.74508L85.4111 9.77985Z" fill="white"/>
<path d="M76.1415 22.3652C77.3222 22.3652 78.1009 21.6367 78.1009 20.5565C78.1009 19.1498 77.071 18.4464 75.8903 18.4464C74.0314 18.4464 72.1724 20.2551 71.042 21.7121L71.5695 22.2396C72.1724 21.5111 72.8758 20.858 73.6294 20.2802C73.7801 20.1295 73.9309 20.029 74.1318 19.9788C74.3579 19.9788 74.4584 20.1797 74.4835 20.7073C74.5086 20.858 74.5086 20.9836 74.5338 21.1846C74.6845 21.9131 75.3879 22.4155 76.1415 22.3652Z" fill="white"/>
<path d="M61.8227 29.2986C57.8537 29.2986 54.0856 24.0484 54.0856 20.7325C54.0856 16.9644 56.4218 16.0851 59.4865 14.2262C62.3503 17.8938 65.1638 21.6368 68.2285 25.2039C66.4701 27.4648 65.0633 29.2986 61.8227 29.2986ZM64.385 10.8852C62.702 8.52381 59.587 4.65523 60.4411 3.07263V2.99726C61.044 1.71611 62.3251 0.912246 64.0585 0.912246C66.8217 0.912246 68.9319 2.62045 68.9319 5.68517C68.957 8.22236 66.671 9.52864 64.385 10.8852ZM64.8623 11.4629C67.3995 9.83008 69.5348 8.72477 69.6604 5.60981C69.7609 2.26876 67.4246 0.133507 63.6817 0.133507C62.928 0.108387 62.1744 0.183749 61.471 0.384714C59.1097 0.962489 57.1754 2.64557 56.3213 4.93155C56.045 5.66005 55.8943 6.43879 55.8943 7.19241C55.8943 9.80496 57.6025 11.4629 59.0846 13.6233C55.1155 15.6832 49.5638 19.2503 49.5638 23.8977C49.5638 28.3691 53.7841 32.2628 58.5822 32.2628C62.8024 32.2628 66.5203 28.7962 68.8063 25.8571C72.1976 30.3537 75.1869 32.6648 79.6082 32.7653C84.356 32.8406 86.0893 27.4648 84.984 23.1943C85.0593 24.0986 84.4313 26.3595 81.1154 26.8117C77.9 27.2889 75.3879 23.9479 72.7753 20.9083L72.3232 20.3808L72.298 20.3556L71.8208 19.7025C69.4343 16.8388 67.0981 14.4272 64.8623 11.4629Z" fill="white"/>
<path d="M89.556 14.2513V8.92573H93.1482L93.6758 2.16827L98.8506 1.7161V8.92573H103.272V14.2262H98.8758V23.3701C98.8758 26.0329 98.8758 27.1382 101.765 26.9875L103.624 26.9121V31.9363L103.197 32.0116C102.066 32.1875 100.986 32.4387 99.8806 32.4387C98.1975 32.4387 95.9115 32.1624 94.5801 30.9314C92.9221 29.374 92.9222 26.6358 92.9222 24.3749V14.2764H89.556V14.2513ZM117.54 30.5295C116.008 35.7295 113.797 40 107.995 40L105.081 39.7237V34.5237L108.07 34.8251C110.029 34.8251 110.808 34.172 111.336 31.9614L103.85 8.97597H110.281L114.224 23.2194L117.993 8.97597H124.122C124.097 8.97597 117.54 30.5295 117.54 30.5295ZM124.8 0.912236H130.754V31.9614H124.8V0.912236ZM145.048 17.6677C144.947 15.1808 144.193 12.8697 141.606 12.8697C138.968 12.8697 137.989 15.0301 137.763 17.6677H145.048ZM137.813 21.6117L137.788 22.7421C137.788 25.4551 139.169 27.6658 141.757 27.6658C143.741 27.6406 145.349 26.0329 145.374 24.0484L150.876 24.5005C150.876 25.631 148.489 32.4136 141.531 32.4136C135.376 32.4136 131.382 27.6155 131.382 20.7827C131.382 14.0001 134.974 8.5238 141.355 8.5238C144.394 8.5238 147.233 10.0813 148.891 12.5933C150.574 15.231 151.026 18.4716 151.001 21.5865H137.788L137.813 21.6117ZM18.3891 25.6812V31.7353H0.302246V1.06296H6.9341V25.6812H18.3891ZM25.3476 31.7353H19.2432V9.02621H25.3476V31.7353ZM25.3476 6.96632H19.2432V0.610789H25.3476V6.96632ZM34.7678 31.7353H28.6635V14.1257H26.2268V9.02621H28.6635C28.6635 7.0668 28.5881 4.68034 29.5929 2.99725C30.9997 0.736392 33.763 -0.193073 36.1746 0.0330128L38.9881 0.309342V5.38372L36.9031 5.23299C34.7176 5.08227 34.7176 6.61463 34.7176 8.54892V9.05134H38.4605V14.1508H34.7678V31.7353Z" fill="white"/>
<path d="M51.6238 17.6175C51.5233 15.1557 50.7697 12.8697 48.1069 12.8697C45.4441 12.8697 44.364 15.0301 44.163 17.6175H51.6238ZM44.2132 21.5112L44.1881 22.6166C44.1881 25.3045 45.5949 27.49 48.2577 27.49C50.1166 27.49 52.0006 26.033 52.0006 23.9228L57.6528 24.375C57.6528 25.4803 55.2161 32.2126 48.0818 32.2126C41.7765 32.2126 37.6567 27.4648 37.6567 20.7074C37.6567 14.0002 41.3495 8.5741 47.906 8.5741C50.8451 8.5741 53.8847 10.006 55.618 12.5934C57.3262 15.1808 57.8035 18.4214 57.7784 21.4861L44.2132 21.5112Z" fill="white"/>
</svg>
