<svg width="15" height="12" viewBox="0 0 15 12" fill="none" xmlns="http://www.w3.org/2000/svg">
<path d="M14.989 1.73119C14.989 1.71405 15.0008 1.69736 15 1.68042L10.4225 6.09107L14.9945 10.3608C14.9972 10.3303 14.989 10.2996 14.989 10.2684V1.73119Z" fill="white"/>
<path d="M9.72372 6.77002L7.85506 8.56791C7.7605 8.65888 7.63837 8.7045 7.51618 8.7045C7.39653 8.7045 7.27688 8.66084 7.18297 8.57332L5.31939 6.83675L0.717529 11.2724C0.829425 11.3126 0.949532 11.3439 1.07531 11.3439H13.9571C14.1439 11.3439 14.3191 11.287 14.4714 11.2021L9.72372 6.77002Z" fill="white"/>
<path d="M7.51087 7.54257L14.4967 0.813129C14.3386 0.71909 14.1545 0.656006 13.9571 0.656006H1.07534C0.818379 0.656006 0.582922 0.75578 0.399536 0.90795L7.51087 7.54257Z" fill="white"/>
<path d="M0 1.89526V10.2685C0 10.3646 0.0220924 10.4573 0.0460746 10.5458L4.59085 6.16932L0 1.89526Z" fill="white"/>
</svg>
