<svg width="20" height="16" viewBox="0 0 20 16" fill="none" xmlns="http://www.w3.org/2000/svg">
<path d="M10.8322 12.7397C13.3942 12.7397 15.4787 10.6558 15.4787 8.09385C15.4787 5.53186 13.3943 3.44702 10.8322 3.44702C8.27034 3.44702 6.18604 5.53153 6.18604 8.09385C6.18604 10.6558 8.27001 12.7397 10.8322 12.7397Z" fill="#6B4836"/>
<path d="M10.8323 13.9868C14.0873 13.9868 16.7252 11.3483 16.7252 8.09389C16.7252 4.83872 14.0873 2.20068 10.8323 2.20068C7.57756 2.20068 4.93933 4.83872 4.93933 8.09389C4.93933 11.3482 7.57756 13.9868 10.8323 13.9868ZM10.8323 3.10355C13.5836 3.10355 15.8226 5.34265 15.8226 8.09389C15.8226 10.8453 13.5836 13.0839 10.8323 13.0839C8.0809 13.0839 5.84226 10.8453 5.84226 8.09389C5.84226 5.34265 8.0809 3.10355 10.8323 3.10355Z" fill="#6B4836"/>
<path d="M20 14.5351L19.6561 1.3085C19.6561 1.0237 19.4252 0.792725 19.1404 0.792725C19.0642 0.792725 18.9926 0.810181 18.9278 0.840202V0.835309C18.9278 0.835309 18.9144 0.843905 18.8952 0.856998C18.8459 0.884241 18.8016 0.917766 18.7633 0.958763C18.3859 1.26856 17.1825 2.5312 17.0817 4.23801C16.9289 6.84146 18.1935 7.89581 18.6243 8.86149L18.2805 14.5348C18.2805 14.8196 18.8553 15.0506 19.14 15.0506C19.4252 15.0509 20 14.8199 20 14.5351Z" fill="#6B4836"/>
<path d="M0.900218 6.47737L1.79032 6.92199C1.89175 6.97284 2.00357 7.00994 2.12041 7.03751L1.77657 14.7745C1.77657 15.0136 2.35158 15.207 2.63618 15.207C2.92092 15.207 3.4958 15.0136 3.4958 14.7745L3.15195 6.99791C3.27303 6.95982 3.38967 6.91333 3.49177 6.85084L4.15123 6.44927C4.62706 6.15898 4.98565 5.52055 4.98565 4.96312V1.49648C4.98565 1.21169 4.75461 0.980713 4.46988 0.980713C4.18528 0.980713 3.95411 1.21169 3.95411 1.49648V4.61921H3.66766V1.49648C3.66766 1.21169 3.43662 0.980713 3.15189 0.980713C2.86729 0.980713 2.63612 1.21169 2.63612 1.49648V4.61921H2.34867V1.49648C2.34867 1.21169 2.11764 0.980713 1.8329 0.980713C1.5483 0.980713 1.31713 1.21169 1.31713 1.49648V4.61921H1.03154V1.6079C1.03154 1.32317 0.800503 1.09213 0.515771 1.09213C0.231171 1.09213 0 1.32317 0 1.6079V5.02072C0 5.59435 0.387159 6.22088 0.900218 6.47737Z" fill="#6B4836"/>
</svg>
