<svg width="15" height="16" viewBox="0 0 15 16" fill="none" xmlns="http://www.w3.org/2000/svg">
<path d="M7.50001 8.00009C8.53543 8.00009 9.4192 7.63375 10.1515 6.90138C10.8839 6.16901 11.2502 5.28525 11.2502 4.24996C11.2502 3.21484 10.8839 2.33104 10.1515 1.5985C9.41896 0.866167 8.53516 0.5 7.50001 0.5C6.46485 0.5 5.58092 0.866167 4.84859 1.5985C4.11611 2.33104 3.74988 3.2148 3.74988 4.24996C3.74988 5.28525 4.11611 6.16901 4.84859 6.90138C5.58113 7.63375 6.46482 8.00009 7.50001 8.00009Z" fill="#6B4836"/>
<path d="M14.3408 11.96C14.318 11.6313 14.2724 11.2764 14.2041 10.8955C14.1358 10.5146 14.0494 10.1616 13.9452 9.8359C13.841 9.51047 13.701 9.19304 13.5252 8.88376C13.3495 8.57451 13.1477 8.31089 12.9197 8.09269C12.6917 7.87457 12.4134 7.70053 12.0849 7.57035C11.7559 7.4402 11.3929 7.375 10.9958 7.375C10.9373 7.375 10.8005 7.44498 10.5856 7.58499C10.3709 7.72499 10.1284 7.88127 9.85821 8.05387C9.58806 8.22616 9.23629 8.38255 8.80353 8.52231C8.37056 8.66231 7.93605 8.73233 7.49969 8.73233C7.06351 8.73233 6.62896 8.66231 6.19606 8.52231C5.76319 8.38255 5.41153 8.22616 5.14134 8.05387C4.87119 7.88127 4.62871 7.72502 4.4139 7.58499C4.19899 7.44498 4.06234 7.375 4.00374 7.375C3.60662 7.375 3.24363 7.4402 2.91489 7.57035C2.58607 7.70053 2.30778 7.8747 2.07987 8.09269C1.85203 8.31089 1.65018 8.57451 1.47447 8.88376C1.29876 9.19304 1.15879 9.51061 1.0546 9.8359C0.950444 10.1616 0.864144 10.5146 0.795802 10.8955C0.727391 11.2764 0.68183 11.6311 0.659015 11.96C0.636234 12.2889 0.624878 12.6259 0.624878 12.9709C0.624878 13.752 0.86257 14.3691 1.33778 14.8216C1.8131 15.2739 2.44467 15.5 3.23241 15.5H11.7678C12.5554 15.5 13.1869 15.2739 13.6623 14.8216C14.1378 14.3691 14.3753 13.7521 14.3753 12.9709C14.3753 12.6259 14.3639 12.2889 14.3408 11.96Z" fill="#6B4836"/>
</svg>
