<svg width="15" height="16" viewBox="0 0 15 16" fill="none" xmlns="http://www.w3.org/2000/svg">
<path d="M14.6638 12.3545L12.3473 10.0378C11.8859 9.57821 11.1218 9.59217 10.6443 10.0698L9.47726 11.2366C9.40353 11.196 9.32721 11.1535 9.24697 11.1085C8.50998 10.7002 7.50128 10.1405 6.43983 9.07823C5.37524 8.01377 4.81502 7.00352 4.40541 6.26605C4.36219 6.18792 4.32078 6.11259 4.27988 6.04106L5.06315 5.25895L5.44824 4.87338C5.92646 4.39504 5.93964 3.63116 5.47931 3.17027L3.1628 0.85324C2.70247 0.392997 1.93803 0.406959 1.45981 0.885302L0.806941 1.54192L0.824782 1.55964C0.605865 1.83897 0.422931 2.16114 0.286798 2.50856C0.161308 2.83927 0.083179 3.15484 0.0474542 3.47107C-0.258426 6.00688 0.900369 8.32443 4.04519 11.4693C8.39229 15.8161 11.8955 15.4877 12.0466 15.4717C12.3758 15.4323 12.6912 15.3537 13.0118 15.2292C13.3562 15.0947 13.6781 14.912 13.9573 14.6935L13.9716 14.7062L14.633 14.0586C15.1102 13.5803 15.1239 12.8162 14.6638 12.3545Z" fill="white"/>
</svg>
