<svg width="15" height="16" viewBox="0 0 15 16" fill="none" xmlns="http://www.w3.org/2000/svg">
<path d="M14.467 12.3204L11.9981 9.85162C12.447 8.95386 12.7463 7.90648 12.7463 6.8591C12.7463 3.34289 9.90339 0.5 6.38718 0.5C2.87097 0.5 0.0280762 3.34289 0.0280762 6.8591C0.0280762 10.3753 2.87097 13.2182 6.38718 13.2182C7.43456 13.2182 8.48194 12.919 9.3797 12.4701L11.8485 14.9389C12.5967 15.687 13.7188 15.687 14.467 14.9389C15.1403 14.1908 15.1403 13.0686 14.467 12.3204ZM6.38718 11.7219C3.69391 11.7219 1.52434 9.55237 1.52434 6.8591C1.52434 4.16584 3.69391 1.99626 6.38718 1.99626C9.08044 1.99626 11.25 4.16584 11.25 6.8591C11.25 9.55237 9.08044 11.7219 6.38718 11.7219Z" fill="#6B4836"/>
</svg>
