<svg width="40" height="41" viewBox="0 0 40 41" fill="none" xmlns="http://www.w3.org/2000/svg">
<path d="M20 0.399902C8.95601 0.399902 0 9.35592 0 20.3999C0 31.4439 8.95601 40.3999 20 40.3999C31.044 40.3999 40 31.4439 40 20.3999C40 9.35592 31.044 0.399902 20 0.399902ZM30.0336 15.7025V18.4105C28.7566 18.411 27.5159 18.1608 26.3458 17.6671C25.5934 17.3494 24.8923 16.9401 24.2512 16.4455L24.2704 24.7809C24.2623 26.6579 23.5198 28.4214 22.1758 29.7497C21.082 30.831 19.6961 31.5186 18.1939 31.7412C17.8409 31.7934 17.4817 31.8202 17.1184 31.8202C15.5104 31.8202 13.9838 31.2993 12.7349 30.3382C12.4999 30.1572 12.2752 29.9611 12.0612 29.7497C10.6046 28.3101 9.85352 26.359 9.98 24.3065C10.0765 22.744 10.702 21.254 11.7448 20.0861C13.1245 18.5406 15.0547 17.6828 17.1184 17.6828C17.4817 17.6828 17.8409 17.7101 18.1939 17.7623V18.7636V21.5489C17.8592 21.4385 17.5018 21.3778 17.1296 21.3778C15.2441 21.3778 13.7188 22.9161 13.747 24.8029C13.7648 26.0102 14.4243 27.0655 15.397 27.6472C15.8541 27.9207 16.3799 28.0901 16.9411 28.1208C17.3808 28.145 17.803 28.0837 18.1939 27.9547C19.541 27.5097 20.5128 26.2444 20.5128 24.752L20.5173 19.1702V8.97959H24.2466C24.2502 9.34912 24.2877 9.70967 24.3574 10.059C24.6389 11.4732 25.436 12.7001 26.5454 13.5365C27.5127 14.2661 28.7173 14.6986 30.0228 14.6986C30.0237 14.6986 30.0345 14.6986 30.0335 14.6977V15.7025H30.0336Z" fill="white"/>
</svg>
