<svg width="40" height="41" viewBox="0 0 40 41" fill="none" xmlns="http://www.w3.org/2000/svg">
<path d="M20 0.399902C8.95599 0.399902 0 9.3559 0 20.3999C0 31.4439 8.95599 40.3999 20 40.3999C31.044 40.3999 40 31.4439 40 20.3999C40 9.3559 31.044 0.399902 20 0.399902ZM29.1318 15.9938C29.1406 16.1906 29.1449 16.3884 29.1449 16.587C29.1449 22.653 24.5276 29.6479 16.0837 29.6483H16.084H16.0837C13.4912 29.6483 11.0788 28.8884 9.04724 27.5862C9.40643 27.6286 9.77203 27.6497 10.1422 27.6497C12.2931 27.6497 14.2725 26.916 15.8438 25.6846C13.8342 25.6474 12.1399 24.3202 11.5552 22.4962C11.835 22.5499 12.1228 22.5792 12.4179 22.5792C12.8369 22.5792 13.2428 22.5227 13.6285 22.4174C11.528 21.9969 9.94568 20.1405 9.94568 17.9176C9.94568 17.8969 9.94568 17.8782 9.94629 17.859C10.5649 18.2029 11.2723 18.4099 12.0255 18.433C10.7928 17.6106 9.9826 16.2047 9.9826 14.6119C9.9826 13.7709 10.21 12.9829 10.6042 12.3045C12.868 15.0822 16.2512 16.909 20.0665 17.101C19.9878 16.7646 19.9472 16.4143 19.9472 16.0542C19.9472 13.52 22.0032 11.4641 24.5383 11.4641C25.8588 11.4641 27.0514 12.0222 27.8891 12.9146C28.9349 12.7083 29.917 12.3262 30.8041 11.8004C30.4608 12.8718 29.7333 13.7709 28.7854 14.3394C29.7141 14.2283 30.5991 13.9821 31.4215 13.6165C30.8072 14.5372 30.0281 15.3459 29.1318 15.9938Z" fill="white"/>
</svg>
