<svg width="15" height="14" viewBox="0 0 15 14" fill="none" xmlns="http://www.w3.org/2000/svg">
<path d="M13.81 1.62631C13.0336 0.784142 11.9681 0.320312 10.8097 0.320312C9.94389 0.320312 9.15092 0.594055 8.45284 1.13387C8.10059 1.40636 7.78141 1.73972 7.5 2.12882C7.2187 1.73984 6.89941 1.40636 6.54705 1.13387C5.84908 0.594055 5.05611 0.320312 4.19025 0.320312C3.03188 0.320312 1.96632 0.784142 1.18984 1.62631C0.42263 2.45864 0 3.59573 0 4.82825C0 6.09683 0.472755 7.25806 1.48773 8.48281C2.39571 9.57835 3.70068 10.6905 5.21187 11.9783C5.72788 12.4181 6.31279 12.9166 6.92013 13.4476C7.08057 13.5881 7.28645 13.6655 7.5 13.6655C7.71343 13.6655 7.91943 13.5881 8.07964 13.4478C8.68698 12.9167 9.27223 12.418 9.78848 11.978C11.2994 10.6904 12.6044 9.57835 13.5124 8.4827C14.5274 7.25806 15 6.09683 15 4.82814C15 3.59573 14.5774 2.45864 13.81 1.62631Z" fill="white"/>
</svg>
